<svg width="155" height="37" viewBox="0 0 155 37" fill="none" xmlns="http://www.w3.org/2000/svg">
<path d="M67.0987 14.7308C66.4773 10.8423 63.4322 8.56961 59.5881 8.56961C54.8828 8.56961 51.4116 12.0941 51.4116 17.9091C51.4116 23.7241 54.8651 27.2486 59.5881 27.2486C63.5831 27.2486 66.5039 24.745 67.0987 21.1495L64.3288 21.1406C63.8583 23.4666 61.9052 24.745 59.6058 24.745C56.4897 24.745 54.1371 22.3569 54.1371 17.9091C54.1371 13.4968 56.4808 11.0732 59.6147 11.0732C61.9318 11.0732 63.8761 12.3782 64.3288 14.7308H67.0987ZM73.3366 27.3019C75.5916 27.3019 76.8611 26.1566 77.3672 25.1357H77.4737V27H80.066V17.9446C80.066 13.9762 76.941 13.1861 74.7748 13.1861C72.3068 13.1861 70.0341 14.1804 69.1463 16.6662L71.641 17.2344C72.0316 16.2667 73.0259 15.3345 74.8104 15.3345C76.5238 15.3345 77.4027 16.2312 77.4027 17.7759V17.8381C77.4027 18.8058 76.4084 18.788 73.9581 19.0721C71.3746 19.3739 68.729 20.0487 68.729 23.147C68.729 25.8281 70.7443 27.3019 73.3366 27.3019ZM73.9137 25.1712C72.4133 25.1712 71.3302 24.4965 71.3302 23.1825C71.3302 21.7621 72.5909 21.256 74.1268 21.0519C74.9879 20.9364 77.0298 20.7056 77.4116 20.3239V22.0817C77.4116 23.6975 76.1243 25.1712 73.9137 25.1712ZM82.8016 27H85.4561V18.5927C85.4561 16.755 86.7434 15.4766 88.2526 15.4766C89.7263 15.4766 90.7473 16.4531 90.7473 17.9357V27H93.3929V18.3086C93.3929 16.6662 94.3961 15.4766 96.1273 15.4766C97.53 15.4766 98.6841 16.2578 98.6841 18.1044V27H101.339V17.8558C101.339 14.7397 99.5985 13.1861 97.1305 13.1861C95.1685 13.1861 93.6947 14.1271 93.0378 15.5831H92.8957C92.3009 14.0916 91.0491 13.1861 89.2292 13.1861C87.427 13.1861 86.0864 14.0827 85.5183 15.5831H85.3496V13.3636H82.8016V27ZM108.065 27.3019C110.32 27.3019 111.589 26.1566 112.095 25.1357H112.202V27H114.794V17.9446C114.794 13.9762 111.669 13.1861 109.503 13.1861C107.035 13.1861 104.762 14.1804 103.874 16.6662L106.369 17.2344C106.76 16.2667 107.754 15.3345 109.538 15.3345C111.252 15.3345 112.131 16.2312 112.131 17.7759V17.8381C112.131 18.8058 111.136 18.788 108.686 19.0721C106.103 19.3739 103.457 20.0487 103.457 23.147C103.457 25.8281 105.472 27.3019 108.065 27.3019ZM108.642 25.1712C107.141 25.1712 106.058 24.4965 106.058 23.1825C106.058 21.7621 107.319 21.256 108.855 21.0519C109.716 20.9364 111.758 20.7056 112.14 20.3239V22.0817C112.14 23.6975 110.852 25.1712 108.642 25.1712ZM123.247 32.3711C126.718 32.3711 129.399 30.782 129.399 27.3019V13.3636H126.798V15.5742H126.603C126.132 14.7308 125.191 13.1861 122.652 13.1861C119.359 13.1861 116.935 15.7873 116.935 20.1286C116.935 24.4787 119.412 26.7958 122.635 26.7958C125.138 26.7958 126.106 25.3842 126.585 24.5142H126.754V27.1953C126.754 29.2994 125.289 30.2315 123.274 30.2315C121.063 30.2315 120.202 29.1218 119.731 28.3672L117.45 29.3082C118.169 30.9506 119.989 32.3711 123.247 32.3711ZM123.22 24.5941C120.85 24.5941 119.616 22.7742 119.616 20.093C119.616 17.4741 120.823 15.4411 123.22 15.4411C125.538 15.4411 126.78 17.332 126.78 20.093C126.78 22.9073 125.511 24.5941 123.22 24.5941ZM132.159 27H134.814V18.6726C134.814 16.8881 136.19 15.6009 138.072 15.6009C138.623 15.6009 139.244 15.6985 139.457 15.7607V13.2216C139.191 13.1861 138.667 13.1595 138.33 13.1595C136.732 13.1595 135.364 14.065 134.867 15.5298H134.725V13.3636H132.159V27ZM149.592 21.3448C149.601 23.6619 147.879 24.7628 146.387 24.7628C144.745 24.7628 143.609 23.5732 143.609 21.7177V13.3636H140.954V22.0373C140.954 25.4198 142.81 27.1776 145.429 27.1776C147.479 27.1776 148.873 26.0945 149.504 24.6385H149.646V27H152.256V13.3636H149.592V21.3448Z" fill="#0051FF"/>
<path d="M21.4316 34.5326C20.5658 35.1141 19.4342 35.1141 18.5684 34.5326L1.51866 23.0804L9.11417 2.91261C9.49091 1.91227 10.448 1.25 11.517 1.25L28.4831 1.25C29.552 1.25 30.5091 1.91227 30.8858 2.91262L38.4814 23.0804L21.4316 34.5326Z" stroke="#0050FF" stroke-width="2.5"/>
<path d="M15.6465 11.758C15.6465 10.8682 14.9125 10.1469 14.0069 10.1469C13.1014 10.1469 12.3673 10.8682 12.3673 11.758V11.7709C12.3673 12.6607 13.1014 13.382 14.0069 13.382C14.9125 13.382 15.6465 12.6607 15.6465 11.7709V11.758Z" fill="#535672"/>
<path d="M27.6704 11.758C27.6704 10.8682 26.9363 10.1469 26.0308 10.1469C25.1253 10.1469 24.3912 10.8682 24.3912 11.758V11.7709C24.3912 12.6607 25.1253 13.382 26.0308 13.382C26.9363 13.382 27.6704 12.6607 27.6704 11.7709V11.758Z" fill="#535672"/>
<path d="M11.2554 17.6188C11.793 17.6188 12.2289 18.0488 12.2289 18.5793C12.2289 20.4311 13.7506 21.9323 15.6277 21.9323C17.5048 21.9323 19.0265 20.4311 19.0265 18.5793C19.0265 18.4787 19.0422 18.3817 19.0712 18.2906C19.0546 18.0632 19.0453 17.7991 19.0453 17.4932C19.0453 16.8241 18.7527 16.115 18.5106 15.6429C18.3872 15.4022 18.5609 15.0947 18.8343 15.0947H21.149C21.4145 15.0947 21.5877 15.3852 21.4778 15.6236C21.2604 16.0956 20.9924 16.815 20.9924 17.4932C20.9924 17.8457 20.9789 18.1425 20.955 18.3918C20.9671 18.4524 20.9735 18.5151 20.9735 18.5793C20.9735 20.4311 22.4952 21.9323 24.3723 21.9323C26.2494 21.9323 27.7711 20.4311 27.7711 18.5793C27.7711 18.0488 28.207 17.6188 28.7446 17.6188C29.2823 17.6188 29.7181 18.0488 29.7181 18.5793C29.7181 21.4919 27.3247 23.8531 24.3723 23.8531C22.5653 23.8531 20.9676 22.9686 20 21.6144C19.0324 22.9686 17.4347 23.8531 15.6277 23.8531C12.6753 23.8531 10.2819 21.4919 10.2819 18.5793C10.2819 18.0488 10.7177 17.6188 11.2554 17.6188Z" fill="#535672"/>
</svg>
